HIERARCHY
ROOT Hips
{
    OFFSET   0.000000   0.000000   0.000000
    CHANNELS 6 Xposition Yposition Zposition Zrotation Xrotation Yrotation
    JOINT Chest
    {
        OFFSET   0.000000   8.007230   0.000000
        CHANNELS 3 Zrotation Xrotation Yrotation
        JOINT Chest2
        {
            OFFSET   0.000000  22.077100   0.000000
            CHANNELS 3 Zrotation Xrotation Yrotation
            JOINT Neck
            {
                OFFSET   0.000000  23.254800  -0.000021
                CHANNELS 3 Zrotation Xrotation Yrotation
                JOINT Head
                {
                    OFFSET   0.000000  14.370000   1.956610
                    CHANNELS 3 Zrotation Xrotation Yrotation
                    End Site
                    {
                        OFFSET   0.000000  19.566000   0.000000
                    }
                }
            }
            JOINT LeftCollar
            {
                OFFSET   3.911900  19.017000  -0.467063
                CHANNELS 3 Zrotation Xrotation Yrotation
                JOINT LeftShoulder
                {
                    OFFSET  10.383700   0.000000   0.000000
                    CHANNELS 3 Zrotation Xrotation Yrotation
                    JOINT LeftElbow
                    {
                        OFFSET  26.662100   0.001529   0.000325
                        CHANNELS 3 Zrotation Xrotation Yrotation
                        JOINT LeftWrist
                        {
                            OFFSET  28.869000  -0.000011  -0.000096
                            CHANNELS 3 Zrotation Xrotation Yrotation
                            JOINT LeftFinger0
                            {
                                OFFSET   2.044650  -2.323460   3.252850
                                CHANNELS 3 Zrotation Xrotation Yrotation
                                JOINT LeftFinger01
                                {
                                    OFFSET   3.088130   0.000000   0.000000
                                    CHANNELS 3 Zrotation Xrotation Yrotation
                                    JOINT LeftFinger02
                                    {
                                        OFFSET   2.639460   0.000000   0.000000
                                        CHANNELS 3 Zrotation Xrotation Yrotation
                                        End Site
                                        {
                                            OFFSET   2.582190   0.000000   0.000000
                                        }
                                    }
                                }
                            }
                            JOINT LeftFinger1
                            {
                                OFFSET   8.364480   0.000000   3.252850
                                CHANNELS 3 Zrotation Xrotation Yrotation
                                JOINT LeftFinger11
                                {
                                    OFFSET   4.646930   0.000000   0.000000
                                    CHANNELS 3 Zrotation Xrotation Yrotation
                                    JOINT LeftFinger12
                                    {
                                        OFFSET   2.323460   0.000000   0.000000
                                        CHANNELS 3 Zrotation Xrotation Yrotation
                                        End Site
                                        {
                                            OFFSET   2.273050   0.000000   0.000000
                                        }
                                    }
                                }
                            }
                            JOINT LeftFinger2
                            {
                                OFFSET   8.364480   0.000016   1.078090
                                CHANNELS 3 Zrotation Xrotation Yrotation
                                JOINT LeftFinger21
                                {
                                    OFFSET   5.111620   0.000000   0.000000
                                    CHANNELS 3 Zrotation Xrotation Yrotation
                                    JOINT LeftFinger22
                                    {
                                        OFFSET   2.788160   0.000017   0.000000
                                        CHANNELS 3 Zrotation Xrotation Yrotation
                                        End Site
                                        {
                                            OFFSET   2.727660   0.000000   0.000000
                                        }
                                    }
                                }
                            }
                            JOINT LeftFinger3
                            {
                                OFFSET   7.899780   0.000015  -1.078090
                                CHANNELS 3 Zrotation Xrotation Yrotation
                                JOINT LeftFinger31
                                {
                                    OFFSET   4.646920   0.000000   0.000000
                                    CHANNELS 3 Zrotation Xrotation Yrotation
                                    JOINT LeftFinger32
                                    {
                                        OFFSET   2.323470   0.000000   0.000000
                                        CHANNELS 3 Zrotation Xrotation Yrotation
                                        End Site
                                        {
                                            OFFSET   2.273050   0.000000   0.000000
                                        }
                                    }
                                }
                            }
                            JOINT LeftFinger4
                            {
                                OFFSET   7.435090   0.000000  -3.252850
                                CHANNELS 3 Zrotation Xrotation Yrotation
                                JOINT LeftFinger41
                                {
                                    OFFSET   3.717550   0.000000   0.000000
                                    CHANNELS 3 Zrotation Xrotation Yrotation
                                    JOINT LeftFinger42
                                    {
                                        OFFSET   1.858760   0.000000   0.000000
                                        CHANNELS 3 Zrotation Xrotation Yrotation
                                        End Site
                                        {
                                            OFFSET   1.818440   0.000000   0.000000
                                        }
                                    }
                                }
                            }
                        }
                    }
                }
            }
            JOINT RightCollar
            {
                OFFSET  -3.911900  19.017000  -0.467062
                CHANNELS 3 Zrotation Xrotation Yrotation
                JOINT RightShoulder
                {
                    OFFSET -10.383700   0.000015   0.000000
                    CHANNELS 3 Zrotation Xrotation Yrotation
                    JOINT RightElbow
                    {
                        OFFSET -26.662100   0.001341   0.000385
                        CHANNELS 3 Zrotation Xrotation Yrotation
                        JOINT RightWrist
                        {
                            OFFSET -28.869000   0.000025  -0.000080
                            CHANNELS 3 Zrotation Xrotation Yrotation
                            JOINT RightFinger0
                            {
                                OFFSET  -2.044650  -2.323490   3.252850
                                CHANNELS 3 Zrotation Xrotation Yrotation
                                JOINT RightFinger01
                                {
                                    OFFSET  -3.088130   0.000000   0.000000
                                    CHANNELS 3 Zrotation Xrotation Yrotation
                                    JOINT RightFinger02
                                    {
                                        OFFSET  -2.639460   0.000000   0.000000
                                        CHANNELS 3 Zrotation Xrotation Yrotation
                                        End Site
                                        {
                                            OFFSET  -2.582190   0.000000   0.000000
                                        }
                                    }
                                }
                            }
                            JOINT RightFinger1
                            {
                                OFFSET  -8.364480   0.000000   3.252850
                                CHANNELS 3 Zrotation Xrotation Yrotation
                                JOINT RightFinger11
                                {
                                    OFFSET  -4.646930   0.000000   0.000000
                                    CHANNELS 3 Zrotation Xrotation Yrotation
                                    JOINT RightFinger12
                                    {
                                        OFFSET  -2.323470   0.000000   0.000000
                                        CHANNELS 3 Zrotation Xrotation Yrotation
                                        End Site
                                        {
                                            OFFSET  -2.273050   0.000000   0.000000
                                        }
                                    }
                                }
                            }
                            JOINT RightFinger2
                            {
                                OFFSET  -8.364480   0.000000   1.078090
                                CHANNELS 3 Zrotation Xrotation Yrotation
                                JOINT RightFinger21
                                {
                                    OFFSET  -5.111610   0.000000   0.000000
                                    CHANNELS 3 Zrotation Xrotation Yrotation
                                    JOINT RightFinger22
                                    {
                                        OFFSET  -2.788160   0.000000   0.000000
                                        CHANNELS 3 Zrotation Xrotation Yrotation
                                        End Site
                                        {
                                            OFFSET  -2.727660   0.000000   0.000000
                                        }
                                    }
                                }
                            }
                            JOINT RightFinger3
                            {
                                OFFSET  -7.899780   0.000000  -1.078090
                                CHANNELS 3 Zrotation Xrotation Yrotation
                                JOINT RightFinger31
                                {
                                    OFFSET  -4.646920   0.000000   0.000000
                                    CHANNELS 3 Zrotation Xrotation Yrotation
                                    JOINT RightFinger32
                                    {
                                        OFFSET  -2.323470   0.000000   0.000000
                                        CHANNELS 3 Zrotation Xrotation Yrotation
                                        End Site
                                        {
                                            OFFSET  -2.273050   0.000000   0.000000
                                        }
                                    }
                                }
                            }
                            JOINT RightFinger4
                            {
                                OFFSET  -7.435090   0.000000  -3.252850
                                CHANNELS 3 Zrotation Xrotation Yrotation
                                JOINT RightFinger41
                                {
                                    OFFSET  -3.717550   0.000000   0.000000
                                    CHANNELS 3 Zrotation Xrotation Yrotation
                                    JOINT RightFinger42
                                    {
                                        OFFSET  -1.858770   0.000000   0.000000
                                        CHANNELS 3 Zrotation Xrotation Yrotation
                                        End Site
                                        {
                                            OFFSET  -1.818440   0.000000   0.000000
                                        }
                                    }
                                }
                            }
                        }
                    }
                }
            }
        }
    }
    JOINT LeftHip
    {
        OFFSET   9.783010   0.000000   0.000000
        CHANNELS 3 Zrotation Xrotation Yrotation
        JOINT LeftKnee
        {
            OFFSET   0.000070 -41.789100   0.000028
            CHANNELS 3 Zrotation Xrotation Yrotation
            JOINT LeftAnkle
            {
                OFFSET   0.000087 -41.133200  -0.000100
                CHANNELS 3 Zrotation Xrotation Yrotation
                JOINT LeftToe
                {
                    OFFSET   0.000000  -6.358960  14.674500
                    CHANNELS 3 Zrotation Xrotation Yrotation
                    End Site
                    {
                        OFFSET   0.000000   0.000000   3.913200
                    }
                }
            }
        }
    }
    JOINT RightHip
    {
        OFFSET  -9.783020   0.000000   0.000000
        CHANNELS 3 Zrotation Xrotation Yrotation
        JOINT RightKnee
        {
            OFFSET   0.000044 -41.789100  -0.000870
            CHANNELS 3 Zrotation Xrotation Yrotation
            JOINT RightAnkle
            {
                OFFSET  -0.000090 -41.133200  -0.000245
                CHANNELS 3 Zrotation Xrotation Yrotation
                JOINT RightToe
                {
                    OFFSET   0.000000  -6.358960  14.674500
                    CHANNELS 3 Zrotation Xrotation Yrotation
                    End Site
                    {
                        OFFSET   0.000000   0.000000   3.913200
                    }
                }
            }
        }
    }
}
MOTION
Frames: 4
Frame Time:   0.016667
 -0.223080  90.063700   1.761640  -0.692831  -5.532120  -0.052284  -0.375207   5.024850   0.430993  -0.793123  10.046600   0.900385   2.717950  -1.537860   0.068231   4.475650  -3.097330   2.242830  -6.045910  -2.922230   4.840000 -70.192900  20.484900  -4.602620  -3.217290  -3.522920 -15.738900  14.970500   4.497590   9.018750  39.460200  29.150900 -65.064800 -25.872500  -0.003366   0.007562  -7.932070  -0.004366   0.003319 -30.609400   8.146590 -13.467500 -25.830000  -0.009992  -0.001600 -18.085900  -0.003424   0.003774 -28.660500   1.691130  -3.075390 -39.240100  -0.000740  -0.000831 -26.133900  -0.001120  -0.003731 -27.733600   1.640210  -3.102490 -30.620300  -0.000621  -0.000723 -20.392900  -0.001656  -0.000632 -29.015700   0.684781  -1.233990 -43.545800  -0.000533  -0.000276 -28.993300  -0.014016  -0.005879  14.074500   3.078100   5.981880  64.933100  10.779700   3.648240   1.681350  -5.151430  17.366000 -17.813600 -12.825200   2.567880 -37.529400  34.885000  68.838200  34.173800   0.001145  -0.000692  12.086900   0.000932  -0.002268  30.808100   2.049760   3.433610  25.256300  -0.001658   0.005517  17.679400  -0.001761   0.004037  27.481800  -1.130130  -2.171200  29.232700   0.001899  -0.010925  19.469000   0.001122   0.009736  28.314700  -1.669340  -3.094740  34.755300   0.002167  -0.009174  23.147100   0.001169  -0.000386  35.754500  -2.833880  -3.928110  53.777600   0.001482  -0.003868  35.815900  -0.006105  -0.001364   1.251360   6.695710   2.003670   0.591733   2.070340  11.329600  -6.304660  -4.367160   3.866530  -0.000000   0.000000   0.000000   2.094780   6.602540  -5.428460   0.457744   1.843590  -7.616840 -11.214200   0.769666   0.707297  -0.000000   0.000000  -0.000000
 -0.216787  90.063600   1.761960  -0.694312  -5.538820  -0.067570  -0.371854   5.024780   0.430973  -0.786383  10.046500   0.900241   2.718120  -1.526090   0.068238   4.475500  -3.073820   2.235340  -6.046230  -2.918870   4.839840 -70.198500  20.481400  -4.605590  -3.222610  -3.541420 -15.739100  14.970700   4.501720   9.011820  39.465200  29.182400 -65.102600 -25.877600  -0.003356   0.007562  -7.932160  -0.004357   0.003327 -30.609400   8.146590 -13.467500 -25.830000  -0.009986  -0.001585 -18.085900  -0.003423   0.003782 -28.660300   1.691120  -3.081360 -39.243500  -0.000738  -0.000833 -26.136100  -0.001121  -0.003732 -27.733400   1.640200  -3.108550 -30.614100  -0.000619  -0.000727 -20.392700  -0.001657  -0.000631 -29.015400   0.693253  -1.249560 -43.538700  -0.000533  -0.000274 -28.993300  -0.014018  -0.005875  14.073600   3.087620   5.981940  64.932400  10.785400   3.650730   1.678870  -5.139560  17.375100 -17.820900 -12.848400   2.588340 -37.539700  34.894700  68.853200  34.164400   0.001134  -0.000696  12.082100   0.000925  -0.002254  30.804200   2.055460   3.442300  25.253600  -0.001656   0.005529  17.677500  -0.001763   0.004048  27.481900  -1.129240  -2.169250  29.245600   0.001903  -0.010929  19.477600   0.001123   0.009738  28.314900  -1.667760  -3.091470  34.777800   0.002171  -0.009178  23.162000   0.001172  -0.000385  35.773200  -2.834360  -3.927970  53.806300   0.001486  -0.003871  35.835100  -0.006107  -0.001366   1.249760   6.710080   2.003370   0.591283   2.063210  11.337200  -6.296250  -4.371320   3.877300  -0.000000   0.000000  -0.000000   2.093830   6.602220  -5.420970   0.457110   1.847430  -7.620990 -11.214400   0.769964   0.718460   0.000000   0.000000   0.000000
 -0.206692  90.063500   1.762280  -0.696674  -5.552430  -0.091812  -0.365877   5.024720   0.430833  -0.774341  10.046400   0.899231   2.718280  -1.507230   0.068250   4.474880  -3.036060   2.227820  -6.046980  -2.910990   4.839650 -70.202400  20.477700  -4.615510  -3.230190  -3.567670 -15.739400  14.970300   4.511360   9.001450  39.470200  29.213700 -65.140500 -25.882600  -0.003333   0.007561  -7.932280  -0.004339   0.003336 -30.609500   8.146580 -13.467500 -25.829900  -0.009976  -0.001553 -18.086000  -0.003418   0.003805 -28.660000   1.691100  -3.090050 -39.251200  -0.000733  -0.000835 -26.141300  -0.001123  -0.003733 -27.733100   1.640180  -3.117360 -30.608000  -0.000614  -0.000735 -20.392500  -0.001660  -0.000630 -29.014900   0.704787  -1.270530 -43.531500  -0.000530  -0.000271 -28.993400  -0.014024  -0.005863  14.072100   3.103130   5.982030  64.930400  10.796700   3.658060   1.677000  -5.127490  17.391200 -17.830200 -12.885300   2.624360 -37.555800  34.908800  68.870200  34.150300   0.001106  -0.000701  12.075100   0.000903  -0.002234  30.795500   2.061160   3.453290  25.247100  -0.001654   0.005559  17.673000  -0.001765   0.004073  27.482000  -1.128350  -2.167300  29.258700   0.001913  -0.010938  19.486300   0.001125   0.009743  28.315100  -1.666170  -3.088190  34.800300   0.002181  -0.009186  23.177000   0.001178  -0.000384  35.792800  -2.837700  -3.927830  53.835100   0.001495  -0.003883  35.854200  -0.006111  -0.001372   1.246350   6.732880   2.003110   0.590660   2.056040  11.349700  -6.282900  -4.377970   3.893050   0.000000   0.000000   0.000000   2.092330   6.601960  -5.408730   0.455195   1.857280  -7.625180 -11.214700   0.770261   0.729865   0.000000   0.000000  -0.000000
 -0.199422  90.064100   1.761000  -0.700341  -5.568290  -0.108880  -0.360100   5.026910   0.428992  -0.762567  10.050900   0.894837   2.718220  -1.493930   0.068266   4.474150  -3.009210   2.232310  -6.048100  -2.898730   4.839970 -70.195400  20.487400  -4.634700  -3.233200  -3.577560 -15.740000  14.966400   4.529200   8.995510  39.475400  29.211900 -65.138300 -25.877700  -0.003296   0.007560  -7.932340  -0.004322   0.003332 -30.608500   8.148450 -13.471000 -25.829900  -0.009970  -0.001513 -18.086100  -0.003405   0.003846 -28.659900   1.690780  -3.094330 -39.263200  -0.000726  -0.000836 -26.149300  -0.001125  -0.003727 -27.733000   1.639870  -3.121670 -30.612400  -0.000609  -0.000740 -20.392600  -0.001664  -0.000629 -29.014900   0.708188  -1.275870 -43.538700  -0.000523  -0.000273 -28.993500  -0.014033  -0.005840  14.070300   3.117590   5.979680  64.926500  10.810000   3.671840   1.677810  -5.132340  17.403900 -17.830300 -12.910500   2.659140 -37.568900  34.916700  68.867700  34.142600   0.001057  -0.000652  12.071500   0.000863  -0.002227  30.782900   2.061160   3.455680  25.236900  -0.001652   0.005606  17.665900  -0.001765   0.004107  27.481600  -1.134260  -2.178630  29.258900   0.001928  -0.010952  19.486500   0.001135   0.009749  28.314400  -1.672380  -3.099710  34.800200   0.002194  -0.009195  23.176900   0.001186  -0.000381  35.792500  -2.849150  -3.941650  53.835100   0.001510  -0.003903  35.854200  -0.006118  -0.001382   1.241690   6.748100   2.003240   0.593231   2.056220  11.361000  -6.273730  -4.383060   3.901930   0.000000   0.000000   0.000000   2.091340   6.604080  -5.397200   0.451632   1.873130  -7.622930 -11.211500   0.770187   0.730148   0.000000   0.000000   0.000000
